<?xml version="1.0" encoding="utf-8"?>
<!-- Generator: Adobe Illustrator 16.0.0, SVG Export Plug-In . SVG Version: 6.00 Build 0)  -->
<!DOCTYPE svg PUBLIC "-//W3C//DTD SVG 1.1//EN" "http://www.w3.org/Graphics/SVG/1.1/DTD/svg11.dtd">
<svg version="1.1" id="Layer_1" xmlns="http://www.w3.org/2000/svg" xmlns:xlink="http://www.w3.org/1999/xlink" x="0px" y="0px"
	 width="768.631px" height="278px" viewBox="0 0 768.631 278" enable-background="new 0 0 768.631 278" xml:space="preserve">
<circle fill="#8E3F97" stroke="#FFFFFF" stroke-width="2" stroke-miterlimit="10" cx="78.22" cy="206.249" r="67.798"/>
<circle fill="#8E3F97" stroke="#FFFFFF" stroke-width="2" stroke-miterlimit="10" cx="367.22" cy="72.902" r="67.798"/>
<circle fill="#8E3F97" stroke="#FFFFFF" stroke-width="2" stroke-miterlimit="10" cx="689.22" cy="123.902" r="67.798"/>
<path fill="#FFFFFF" d="M139.771,179.256l-0.841-1.8c45.297-21.159,105.103-49.06,166.033-77.235l0.834,1.802
	C244.87,130.197,185.065,158.098,139.771,179.256z"/>
<path fill="#231F20" stroke="#231F20" stroke-width="2" stroke-miterlimit="10" d="M687.906,124.094"/>
<rect x="432.894" y="97.374" transform="matrix(0.9874 0.1583 -0.1583 0.9874 22.2453 -82.4491)" fill="#FFFFFF" width="191.258" height="2"/>
<g>
	<path fill="#FFFFFF" d="M54.902,198.73c-1.046,0.376-3.109,0.992-5.548,0.992c-2.734,0-4.986-0.697-6.754-2.386
		c-1.554-1.501-2.52-3.913-2.52-6.728c0.027-5.387,3.726-9.327,9.783-9.327c2.09,0,3.725,0.456,4.502,0.831l-0.562,1.903
		c-0.965-0.429-2.171-0.777-3.993-0.777c-4.396,0-7.264,2.733-7.264,7.263c0,4.584,2.761,7.29,6.968,7.29
		c1.528,0,2.573-0.214,3.11-0.482v-5.387h-3.672v-1.876h5.95V198.73z"/>
	<path fill="#FFFFFF" d="M65.784,199.535l-0.188-1.635h-0.081c-0.724,1.018-2.117,1.929-3.967,1.929
		c-2.626,0-3.966-1.849-3.966-3.726c0-3.136,2.787-4.851,7.799-4.824v-0.268c0-1.072-0.295-3.002-2.948-3.002
		c-1.206,0-2.466,0.375-3.377,0.965l-0.536-1.555c1.072-0.696,2.626-1.152,4.262-1.152c3.966,0,4.931,2.707,4.931,5.307v4.851
		c0,1.127,0.054,2.226,0.215,3.11H65.784z M65.435,192.914c-2.573-0.053-5.494,0.402-5.494,2.922c0,1.527,1.019,2.251,2.224,2.251
		c1.689,0,2.761-1.071,3.136-2.171c0.08-0.241,0.134-0.509,0.134-0.75V192.914z"/>
	<path fill="#FFFFFF" d="M71.52,180.506h2.359v19.029H71.52V180.506z"/>
	<path fill="#FFFFFF" d="M79.159,193.478c0.054,3.189,2.09,4.503,4.449,4.503c1.688,0,2.707-0.296,3.591-0.671l0.402,1.688
		c-0.831,0.376-2.251,0.805-4.315,0.805c-3.994,0-6.379-2.627-6.379-6.54s2.305-6.995,6.084-6.995c4.234,0,5.36,3.726,5.36,6.111
		c0,0.482-0.054,0.857-0.081,1.099H79.159z M86.074,191.789c0.026-1.501-0.616-3.833-3.27-3.833c-2.385,0-3.431,2.198-3.619,3.833
		H86.074z"/>
	<path fill="#FFFFFF" d="M91.274,190.609c0-1.527-0.027-2.841-0.107-4.047h2.063l0.081,2.546h0.106
		c0.59-1.742,2.01-2.841,3.591-2.841c0.269,0,0.457,0.027,0.671,0.081v2.224c-0.242-0.054-0.483-0.08-0.804-0.08
		c-1.662,0-2.841,1.26-3.163,3.028c-0.054,0.322-0.107,0.697-0.107,1.1v6.915h-2.332V190.609z"/>
	<path fill="#FFFFFF" d="M102.773,182.917c0.026,0.805-0.563,1.448-1.501,1.448c-0.831,0-1.42-0.644-1.42-1.448
		c0-0.83,0.616-1.474,1.474-1.474C102.21,181.443,102.773,182.087,102.773,182.917z M100.146,199.535v-12.973h2.359v12.973H100.146z
		"/>
	<path fill="#FFFFFF" d="M113.6,199.535l-0.188-1.635h-0.08c-0.724,1.018-2.118,1.929-3.967,1.929c-2.626,0-3.966-1.849-3.966-3.726
		c0-3.136,2.787-4.851,7.799-4.824v-0.268c0-1.072-0.295-3.002-2.948-3.002c-1.206,0-2.466,0.375-3.377,0.965l-0.536-1.555
		c1.072-0.696,2.626-1.152,4.261-1.152c3.966,0,4.932,2.707,4.932,5.307v4.851c0,1.127,0.053,2.226,0.214,3.11H113.6z
		 M113.252,192.914c-2.572-0.053-5.494,0.402-5.494,2.922c0,1.527,1.019,2.251,2.225,2.251c1.688,0,2.76-1.071,3.136-2.171
		c0.08-0.241,0.133-0.509,0.133-0.75V192.914z"/>
	<path fill="#FFFFFF" d="M43.805,212.67v15.679c0,1.152,0.026,2.466,0.107,3.35h-2.117l-0.107-2.251h-0.054
		c-0.724,1.447-2.305,2.546-4.422,2.546c-3.136,0-5.548-2.653-5.548-6.593c-0.026-4.314,2.654-6.969,5.816-6.969
		c1.984,0,3.323,0.938,3.913,1.983h0.054v-7.745H43.805z M41.446,224.007c0-0.295-0.026-0.697-0.107-0.992
		c-0.348-1.501-1.635-2.733-3.403-2.733c-2.439,0-3.887,2.145-3.887,5.012c0,2.627,1.287,4.798,3.833,4.798
		c1.582,0,3.028-1.046,3.457-2.814c0.081-0.321,0.107-0.643,0.107-1.019V224.007z"/>
	<path fill="#FFFFFF" d="M49.032,225.642c0.053,3.189,2.09,4.503,4.449,4.503c1.688,0,2.708-0.295,3.591-0.67l0.402,1.688
		c-0.831,0.375-2.251,0.804-4.315,0.804c-3.994,0-6.379-2.627-6.379-6.539c0-3.914,2.305-6.996,6.084-6.996
		c4.235,0,5.36,3.726,5.36,6.111c0,0.482-0.053,0.857-0.081,1.099H49.032z M55.947,223.953c0.027-1.501-0.616-3.833-3.27-3.833
		c-2.385,0-3.43,2.198-3.618,3.833H55.947z"/>
	<path fill="#FFFFFF" d="M66.909,213.635h9.729v1.956h-7.396v6.004h6.833v1.93h-6.833v8.174h-2.333V213.635z"/>
	<path fill="#FFFFFF" d="M90.791,225.105c0,4.798-3.323,6.888-6.459,6.888c-3.511,0-6.218-2.572-6.218-6.673
		c0-4.343,2.841-6.889,6.433-6.889C88.272,218.432,90.791,221.139,90.791,225.105z M80.499,225.239c0,2.841,1.635,4.985,3.94,4.985
		c2.251,0,3.939-2.117,3.939-5.038c0-2.198-1.099-4.985-3.886-4.985C81.705,220.201,80.499,222.773,80.499,225.239z"/>
	<path fill="#FFFFFF" d="M96.608,215.001v3.726h3.377v1.796h-3.377v6.995c0,1.608,0.456,2.52,1.769,2.52
		c0.616,0,1.072-0.08,1.367-0.161l0.107,1.769c-0.456,0.188-1.179,0.322-2.091,0.322c-1.099,0-1.983-0.349-2.546-0.991
		c-0.67-0.697-0.912-1.85-0.912-3.377v-7.076h-2.01v-1.796h2.01v-3.108L96.608,215.001z"/>
	<path fill="#FFFFFF" d="M114.217,225.105c0,4.798-3.323,6.888-6.459,6.888c-3.511,0-6.218-2.572-6.218-6.673
		c0-4.343,2.841-6.889,6.433-6.889C111.698,218.432,114.217,221.139,114.217,225.105z M103.925,225.239
		c0,2.841,1.635,4.985,3.94,4.985c2.251,0,3.939-2.117,3.939-5.038c0-2.198-1.099-4.985-3.886-4.985
		C105.131,220.201,103.925,222.773,103.925,225.239z"/>
	<path fill="#FFFFFF" d="M116.871,229.286c0.697,0.456,1.93,0.938,3.109,0.938c1.715,0,2.52-0.857,2.52-1.93
		c0-1.126-0.669-1.742-2.412-2.386c-2.332-0.83-3.431-2.117-3.431-3.672c0-2.09,1.688-3.806,4.476-3.806
		c1.313,0,2.466,0.375,3.189,0.805l-0.589,1.715c-0.509-0.321-1.447-0.75-2.653-0.75c-1.394,0-2.171,0.804-2.171,1.769
		c0,1.072,0.777,1.555,2.466,2.198c2.251,0.857,3.403,1.982,3.403,3.912c0,2.278-1.769,3.887-4.851,3.887
		c-1.42,0-2.733-0.349-3.645-0.884L116.871,229.286z"/>
</g>
<g>
	<path fill="#FFFFFF" d="M334.561,65.598c-0.857,0.429-2.573,0.858-4.771,0.858c-5.092,0-8.925-3.216-8.925-9.14
		c0-5.655,3.833-9.487,9.434-9.487c2.251,0,3.672,0.482,4.289,0.804l-0.562,1.903c-0.885-0.429-2.145-0.75-3.645-0.75
		c-4.235,0-7.049,2.707-7.049,7.451c0,4.422,2.545,7.264,6.941,7.264c1.42,0,2.868-0.295,3.806-0.75L334.561,65.598z"/>
	<path fill="#FFFFFF" d="M344.399,66.188l-0.188-1.635h-0.08c-0.724,1.018-2.118,1.929-3.967,1.929
		c-2.626,0-3.966-1.849-3.966-3.726c0-3.136,2.787-4.851,7.799-4.825v-0.268c0-1.072-0.295-3.001-2.948-3.001
		c-1.206,0-2.466,0.375-3.377,0.965l-0.536-1.555c1.072-0.697,2.626-1.152,4.261-1.152c3.967,0,4.932,2.707,4.932,5.307v4.851
		c0,1.126,0.054,2.225,0.214,3.11H344.399z M344.05,59.567c-2.573-0.054-5.495,0.402-5.495,2.922c0,1.527,1.019,2.251,2.225,2.251
		c1.688,0,2.761-1.072,3.136-2.171c0.08-0.241,0.133-0.509,0.133-0.75V59.567z"/>
	<path fill="#FFFFFF" d="M350.135,56.726c0-1.339-0.027-2.438-0.107-3.511h2.091l0.134,2.144h0.053
		c0.644-1.232,2.144-2.438,4.289-2.438c1.795,0,4.583,1.072,4.583,5.521v7.747h-2.359V58.71c0-2.091-0.777-3.833-3.001-3.833
		c-1.554,0-2.76,1.099-3.163,2.412c-0.107,0.294-0.161,0.696-0.161,1.099v7.8h-2.359V56.726z"/>
	<path fill="#FFFFFF" d="M372.194,66.188l-0.188-1.635h-0.081c-0.724,1.018-2.117,1.929-3.967,1.929
		c-2.626,0-3.966-1.849-3.966-3.726c0-3.136,2.788-4.851,7.799-4.825v-0.268c0-1.072-0.294-3.001-2.948-3.001
		c-1.206,0-2.466,0.375-3.377,0.965l-0.536-1.555c1.072-0.697,2.626-1.152,4.262-1.152c3.966,0,4.931,2.707,4.931,5.307v4.851
		c0,1.126,0.054,2.225,0.215,3.11H372.194z M371.845,59.567c-2.573-0.054-5.494,0.402-5.494,2.922c0,1.527,1.019,2.251,2.224,2.251
		c1.689,0,2.761-1.072,3.136-2.171c0.08-0.241,0.134-0.509,0.134-0.75V59.567z"/>
	<path fill="#FFFFFF" d="M377.93,47.159h2.358v19.029h-2.358V47.159z"/>
	<path fill="#FFFFFF" d="M389.938,56.726c0-1.339-0.027-2.438-0.107-3.511h2.091l0.134,2.144h0.053
		c0.645-1.232,2.145-2.438,4.289-2.438c1.795,0,4.583,1.072,4.583,5.521v7.747h-2.358V58.71c0-2.091-0.777-3.833-3.002-3.833
		c-1.555,0-2.761,1.099-3.162,2.412c-0.107,0.294-0.162,0.696-0.162,1.099v7.8h-2.357V56.726z"/>
	<path fill="#FFFFFF" d="M416.553,59.594c0,4.797-3.323,6.888-6.459,6.888c-3.512,0-6.219-2.573-6.219-6.673
		c0-4.342,2.841-6.888,6.433-6.888C414.033,52.921,416.553,55.628,416.553,59.594z M406.261,59.729c0,2.841,1.635,4.985,3.94,4.985
		c2.251,0,3.939-2.117,3.939-5.039c0-2.198-1.1-4.985-3.887-4.985C407.466,54.69,406.261,57.263,406.261,59.729z"/>
	<path fill="#FFFFFF" d="M327.66,98.352v-7.665l-5.709-10.399h2.654l2.546,4.985c0.697,1.367,1.232,2.466,1.796,3.726H329
		c0.509-1.18,1.126-2.359,1.823-3.726l2.6-4.985h2.654l-6.058,10.373v7.691H327.66z"/>
	<path fill="#FFFFFF" d="M347.761,91.758c0,4.798-3.323,6.889-6.459,6.889c-3.511,0-6.218-2.573-6.218-6.674
		c0-4.342,2.841-6.888,6.433-6.888C345.242,85.085,347.761,87.792,347.761,91.758z M337.47,91.893c0,2.841,1.635,4.985,3.94,4.985
		c2.251,0,3.94-2.118,3.94-5.039c0-2.198-1.099-4.986-3.886-4.986C338.676,86.854,337.47,89.427,337.47,91.893z"/>
	<path fill="#FFFFFF" d="M361.593,94.814c0,1.34,0.026,2.52,0.107,3.538h-2.091l-0.134-2.117h-0.053
		c-0.616,1.045-1.983,2.412-4.289,2.412c-2.037,0-4.476-1.126-4.476-5.682V85.38h2.359v7.183c0,2.466,0.75,4.127,2.894,4.127
		c1.582,0,2.68-1.099,3.109-2.144c0.134-0.349,0.214-0.778,0.214-1.206v-7.96h2.359V94.814z"/>
	<path fill="#FFFFFF" d="M368.347,81.654v3.726h3.377v1.795h-3.377v6.996c0,1.608,0.456,2.519,1.769,2.519
		c0.616,0,1.072-0.08,1.367-0.161l0.107,1.769c-0.456,0.188-1.179,0.322-2.091,0.322c-1.099,0-1.983-0.349-2.546-0.992
		c-0.67-0.697-0.911-1.85-0.911-3.377v-7.076h-2.01V85.38h2.01v-3.109L368.347,81.654z"/>
	<path fill="#FFFFFF" d="M385.233,94.814c0,1.34,0.026,2.52,0.107,3.538h-2.09l-0.134-2.117h-0.054
		c-0.617,1.045-1.983,2.412-4.288,2.412c-2.037,0-4.476-1.126-4.476-5.682V85.38h2.358v7.183c0,2.466,0.75,4.127,2.895,4.127
		c1.582,0,2.68-1.099,3.109-2.144c0.134-0.349,0.214-0.778,0.214-1.206v-7.96h2.358V94.814z"/>
	<path fill="#FFFFFF" d="M389.04,98.352c0.053-0.884,0.106-2.198,0.106-3.35V79.323h2.332v8.147h0.053
		c0.831-1.447,2.332-2.385,4.424-2.385c3.215,0,5.494,2.68,5.467,6.62c0,4.636-2.922,6.942-5.816,6.942
		c-1.876,0-3.377-0.725-4.341-2.439h-0.081l-0.106,2.144H389.04z M391.479,93.152c0,0.295,0.053,0.59,0.107,0.857
		c0.456,1.635,1.822,2.761,3.538,2.761c2.466,0,3.939-2.01,3.939-4.985c0-2.6-1.34-4.825-3.859-4.825
		c-1.607,0-3.109,1.099-3.592,2.895c-0.053,0.268-0.134,0.589-0.134,0.964V93.152z"/>
	<path fill="#FFFFFF" d="M405.71,92.294c0.055,3.189,2.092,4.503,4.451,4.503c1.688,0,2.706-0.295,3.59-0.67l0.403,1.688
		c-0.831,0.375-2.252,0.804-4.316,0.804c-3.993,0-6.379-2.627-6.379-6.54c0-3.914,2.306-6.996,6.084-6.996
		c4.235,0,5.361,3.726,5.361,6.11c0,0.483-0.054,0.858-0.081,1.099H405.71z M412.626,90.606c0.026-1.5-0.617-3.833-3.271-3.833
		c-2.385,0-3.431,2.198-3.618,3.833H412.626z"/>
</g>
<g>
	<path fill="#FFFFFF" d="M653.13,99.11c1.125-0.188,2.598-0.348,4.475-0.348c2.307,0,3.994,0.536,5.066,1.5
		c0.99,0.858,1.582,2.171,1.582,3.779c0,1.635-0.484,2.921-1.395,3.859c-1.232,1.313-3.242,1.983-5.521,1.983
		c-0.697,0-1.34-0.027-1.875-0.161v7.236h-2.332V99.11z M655.462,107.821c0.51,0.134,1.152,0.188,1.93,0.188
		c2.814,0,4.529-1.367,4.529-3.86c0-2.385-1.689-3.538-4.262-3.538c-1.02,0-1.797,0.081-2.197,0.188V107.821z"/>
	<path fill="#FFFFFF" d="M673.794,116.96l-0.188-1.635h-0.08c-0.723,1.018-2.117,1.93-3.967,1.93c-2.627,0-3.965-1.85-3.965-3.726
		c0-3.136,2.787-4.851,7.797-4.824v-0.269c0-1.072-0.295-3.001-2.947-3.001c-1.205,0-2.465,0.375-3.377,0.964l-0.535-1.555
		c1.07-0.697,2.625-1.152,4.26-1.152c3.967,0,4.932,2.707,4.932,5.307v4.851c0,1.126,0.055,2.225,0.217,3.109H673.794z
		 M673.447,110.34c-2.574-0.053-5.494,0.402-5.494,2.921c0,1.527,1.018,2.251,2.225,2.251c1.688,0,2.76-1.072,3.135-2.171
		c0.08-0.241,0.135-0.509,0.135-0.75V110.34z M674.626,98.387l-3.27,3.833h-1.689l2.359-3.833H674.626z"/>
	<path fill="#FFFFFF" d="M690.708,103.988c-0.055,0.938-0.107,1.983-0.107,3.565v7.531c0,2.975-0.59,4.797-1.85,5.923
		c-1.26,1.18-3.082,1.555-4.717,1.555c-1.555,0-3.27-0.375-4.316-1.072l0.59-1.796c0.859,0.537,2.197,1.019,3.807,1.019
		c2.412,0,4.182-1.259,4.182-4.529v-1.447h-0.055c-0.723,1.206-2.117,2.171-4.127,2.171c-3.217,0-5.521-2.733-5.521-6.325
		c0-4.396,2.869-6.888,5.844-6.888c2.252,0,3.484,1.179,4.047,2.252h0.053l0.107-1.957H690.708z M688.269,109.107
		c0-0.402-0.027-0.75-0.135-1.072c-0.428-1.367-1.58-2.492-3.297-2.492c-2.25,0-3.859,1.903-3.859,4.904
		c0,2.546,1.287,4.664,3.834,4.664c1.447,0,2.76-0.912,3.27-2.412c0.133-0.402,0.188-0.858,0.188-1.26V109.107z"/>
	<path fill="#FFFFFF" d="M696.98,100.343c0.027,0.804-0.562,1.447-1.5,1.447c-0.832,0-1.42-0.643-1.42-1.447
		c0-0.831,0.615-1.475,1.473-1.475C696.417,98.868,696.98,99.512,696.98,100.343z M694.353,116.96v-12.972h2.359v12.972H694.353z"/>
	<path fill="#FFFFFF" d="M700.624,107.499c0-1.34-0.025-2.439-0.105-3.511h2.09l0.135,2.144h0.053
		c0.645-1.233,2.145-2.439,4.289-2.439c1.795,0,4.582,1.072,4.582,5.521v7.746h-2.357v-7.478c0-2.091-0.777-3.833-3.004-3.833
		c-1.553,0-2.76,1.1-3.162,2.412c-0.107,0.295-0.16,0.697-0.16,1.099v7.799h-2.359V107.499z"/>
	<path fill="#FFFFFF" d="M722.685,116.96l-0.189-1.635h-0.08c-0.723,1.018-2.115,1.93-3.967,1.93c-2.627,0-3.965-1.85-3.965-3.726
		c0-3.136,2.787-4.851,7.797-4.824v-0.269c0-1.072-0.293-3.001-2.947-3.001c-1.205,0-2.465,0.375-3.377,0.964l-0.535-1.555
		c1.07-0.697,2.627-1.152,4.26-1.152c3.969,0,4.932,2.707,4.932,5.307v4.851c0,1.126,0.055,2.225,0.217,3.109H722.685z
		 M722.335,110.34c-2.574-0.053-5.494,0.402-5.494,2.921c0,1.527,1.02,2.251,2.225,2.251c1.689,0,2.762-1.072,3.135-2.171
		c0.08-0.241,0.135-0.509,0.135-0.75V110.34z"/>
	<path fill="#FFFFFF" d="M648.077,139.662c0-1.339-0.027-2.438-0.107-3.51h2.09l0.135,2.144h0.055
		c0.643-1.232,2.143-2.438,4.287-2.438c1.797,0,4.584,1.072,4.584,5.521v7.746h-2.359v-7.479c0-2.09-0.777-3.833-3.002-3.833
		c-1.553,0-2.76,1.099-3.162,2.413c-0.107,0.294-0.16,0.695-0.16,1.098v7.801h-2.359V139.662z"/>
	<path fill="#FFFFFF" d="M674.693,142.531c0,4.797-3.324,6.888-6.461,6.888c-3.51,0-6.217-2.573-6.217-6.673
		c0-4.343,2.842-6.889,6.434-6.889C672.173,135.857,674.693,138.564,674.693,142.531z M664.4,142.665
		c0,2.841,1.635,4.985,3.941,4.985c2.25,0,3.939-2.117,3.939-5.039c0-2.198-1.1-4.985-3.887-4.985S664.4,140.199,664.4,142.665z"/>
	<path fill="#FFFFFF" d="M683.431,131.06h9.729v1.957h-7.396v6.004h6.834v1.929h-6.834v8.176h-2.332V131.06z"/>
	<path fill="#FFFFFF" d="M702.38,149.125l-0.188-1.635h-0.08c-0.723,1.018-2.117,1.929-3.967,1.929c-2.627,0-3.967-1.85-3.967-3.726
		c0-3.136,2.787-4.852,7.799-4.824v-0.268c0-1.072-0.295-3.002-2.947-3.002c-1.207,0-2.467,0.375-3.377,0.965l-0.537-1.555
		c1.072-0.697,2.627-1.152,4.262-1.152c3.967,0,4.932,2.707,4.932,5.307v4.851c0,1.126,0.055,2.226,0.215,3.11H702.38z
		 M702.032,142.504c-2.574-0.054-5.494,0.402-5.494,2.922c0,1.527,1.018,2.251,2.225,2.251c1.689,0,2.76-1.071,3.135-2.171
		c0.08-0.242,0.135-0.51,0.135-0.75V142.504z"/>
	<path fill="#FFFFFF" d="M717.365,148.642c-0.617,0.321-1.984,0.751-3.727,0.751c-3.912,0-6.459-2.654-6.459-6.621
		c0-3.993,2.732-6.887,6.969-6.887c1.395,0,2.625,0.348,3.27,0.67l-0.535,1.823c-0.562-0.322-1.449-0.617-2.734-0.617
		c-2.977,0-4.584,2.198-4.584,4.905c0,3.001,1.93,4.851,4.504,4.851c1.34,0,2.225-0.348,2.895-0.643L717.365,148.642z"/>
	<path fill="#FFFFFF" d="M721.277,143.066c0.055,3.189,2.092,4.503,4.451,4.503c1.688,0,2.705-0.295,3.59-0.67l0.402,1.688
		c-0.83,0.375-2.25,0.805-4.316,0.805c-3.992,0-6.377-2.627-6.377-6.54s2.305-6.995,6.084-6.995c4.234,0,5.359,3.726,5.359,6.111
		c0,0.481-0.053,0.856-0.08,1.098H721.277z M728.193,141.379c0.025-1.501-0.617-3.833-3.27-3.833c-2.387,0-3.432,2.197-3.619,3.833
		H728.193z"/>
</g>
</svg>
