<?xml version="1.0" encoding="utf-8"?>
<!-- Generator: Adobe Illustrator 16.0.0, SVG Export Plug-In . SVG Version: 6.00 Build 0)  -->
<!DOCTYPE svg PUBLIC "-//W3C//DTD SVG 1.1//EN" "http://www.w3.org/Graphics/SVG/1.1/DTD/svg11.dtd">
<svg version="1.1" id="Layer_1" xmlns="http://www.w3.org/2000/svg" xmlns:xlink="http://www.w3.org/1999/xlink" x="0px" y="0px"
	 width="768.631px" height="278px" viewBox="0 0 768.631 278" enable-background="new 0 0 768.631 278" xml:space="preserve">
<path fill="#FFFFFF" d="M81.22,274.048c-37.384,0-67.798-30.414-67.798-67.799c0-37.384,30.414-67.798,67.798-67.798
	s67.798,30.414,67.798,67.798C149.019,243.634,118.604,274.048,81.22,274.048z M81.22,140.451
	c-36.281,0-65.798,29.517-65.798,65.798s29.517,65.799,65.798,65.799s65.798-29.518,65.798-65.799S117.501,140.451,81.22,140.451z"
	/>
<path fill="#FFFFFF" d="M369.139,140.452c-37.384,0-67.798-30.415-67.798-67.799c0-37.384,30.414-67.798,67.798-67.798
	s67.798,30.414,67.798,67.798C436.938,110.038,406.523,140.452,369.139,140.452z M369.139,6.854
	c-36.281,0-65.798,29.517-65.798,65.798c0,36.282,29.517,65.799,65.798,65.799c36.282,0,65.798-29.518,65.798-65.799
	C434.938,36.372,405.421,6.854,369.139,6.854z"/>
<path fill="#FFFFFF" d="M689.905,191.893c-37.384,0-67.797-30.415-67.797-67.799s30.413-67.798,67.797-67.798
	c37.385,0,67.799,30.414,67.799,67.798S727.29,191.893,689.905,191.893z M689.905,58.295c-36.28,0-65.797,29.517-65.797,65.798
	c0,36.282,29.517,65.799,65.797,65.799c36.281,0,65.799-29.517,65.799-65.799C755.704,87.812,726.187,58.295,689.905,58.295z"/>
<path fill="#FFFFFF" d="M141.776,179.256l-0.847-1.812c45.623-21.312,105.859-49.413,167.228-77.792l0.84,1.815
	C247.632,129.844,187.397,157.945,141.776,179.256z"/>
<path fill="#FFFFFF" stroke="#000000" stroke-width="2" stroke-miterlimit="10" d="M689.905,124.094"/>
<rect x="433.894" y="97.374" transform="matrix(0.9874 0.1583 -0.1583 0.9874 22.2579 -82.6074)" fill="#FFFFFF" width="191.258" height="2"/>
</svg>
