<?xml version="1.0" encoding="utf-8"?>
<!-- Generator: Adobe Illustrator 16.0.0, SVG Export Plug-In . SVG Version: 6.00 Build 0)  -->
<!DOCTYPE svg PUBLIC "-//W3C//DTD SVG 1.1//EN" "http://www.w3.org/Graphics/SVG/1.1/DTD/svg11.dtd">
<svg version="1.1" id="Layer_1" xmlns="http://www.w3.org/2000/svg" xmlns:xlink="http://www.w3.org/1999/xlink" x="0px" y="0px"
	 width="768.631px" height="278px" viewBox="0 0 768.631 278" enable-background="new 0 0 768.631 278" xml:space="preserve">
<circle fill="#3374B9" stroke="#FFFFFF" stroke-width="2" stroke-miterlimit="10" cx="78.22" cy="206.07" r="67.798"/>
<circle fill="#3374B9" stroke="#FFFFFF" stroke-width="2" stroke-miterlimit="10" cx="367.22" cy="72.724" r="67.798"/>
<circle fill="#3374B9" stroke="#FFFFFF" stroke-width="2" stroke-miterlimit="10" cx="689.22" cy="123.724" r="67.798"/>
<path fill="#FFFFFF" d="M139.771,179.077l-0.841-1.8c45.297-21.159,105.103-49.06,166.033-77.235l0.834,1.802
	C244.87,130.019,185.065,157.918,139.771,179.077z"/>
<path fill="#231F20" stroke="#231F20" stroke-width="2" stroke-miterlimit="10" d="M687.906,123.915"/>
<rect x="432.894" y="97.195" transform="matrix(0.9874 0.1583 -0.1583 0.9874 22.217 -82.4514)" fill="#FFFFFF" width="191.258" height="2"/>
<g>
	<path fill="#FFFFFF" d="M37.299,196.906v-17.524h2.47l5.616,8.866c1.3,2.054,2.314,3.9,3.146,5.694l0.052-0.026
		c-0.208-2.34-0.26-4.473-0.26-7.202v-7.332h2.132v17.524h-2.288l-5.564-8.893c-1.222-1.949-2.392-3.952-3.276-5.85l-0.078,0.025
		c0.13,2.211,0.182,4.316,0.182,7.229v7.488H37.299z"/>
	<path fill="#FFFFFF" d="M65.718,190.51c0,4.654-3.224,6.683-6.267,6.683c-3.406,0-6.032-2.496-6.032-6.475
		c0-4.212,2.756-6.683,6.24-6.683C63.273,184.035,65.718,186.662,65.718,190.51z M55.733,190.641c0,2.756,1.586,4.836,3.822,4.836
		c2.184,0,3.822-2.055,3.822-4.889c0-2.132-1.066-4.836-3.77-4.836S55.733,188.248,55.733,190.641z"/>
	<path fill="#FFFFFF" d="M71.359,180.707v3.615h3.276v1.742h-3.276v6.785c0,1.561,0.442,2.444,1.716,2.444
		c0.598,0,1.04-0.077,1.326-0.155l0.104,1.716c-0.442,0.182-1.144,0.312-2.028,0.312c-1.066,0-1.924-0.338-2.47-0.962
		c-0.65-0.676-0.884-1.794-0.884-3.276v-6.863h-1.95v-1.742h1.95v-3.017L71.359,180.707z"/>
	<path fill="#FFFFFF" d="M81.863,178.888l-3.172,3.718h-1.638l2.288-3.718H81.863z M77.209,196.906v-12.584h2.288v12.584H77.209z"/>
	<path fill="#FFFFFF" d="M92.263,196.438c-0.598,0.312-1.924,0.728-3.614,0.728c-3.796,0-6.267-2.574-6.267-6.422
		c0-3.874,2.652-6.683,6.761-6.683c1.352,0,2.548,0.339,3.172,0.65l-0.52,1.769c-0.546-0.312-1.404-0.599-2.652-0.599
		c-2.886,0-4.446,2.132-4.446,4.759c0,2.912,1.872,4.705,4.368,4.705c1.3,0,2.158-0.338,2.808-0.623L92.263,196.438z"/>
	<path fill="#FFFFFF" d="M97.489,180.785c0.026,0.78-0.546,1.404-1.456,1.404c-0.806,0-1.378-0.624-1.378-1.404
		c0-0.806,0.598-1.43,1.43-1.43C96.943,179.355,97.489,179.979,97.489,180.785z M94.941,196.906v-12.584h2.288v12.584H94.941z"/>
	<path fill="#FFFFFF" d="M107.993,196.906l-0.182-1.586h-0.078c-0.702,0.988-2.054,1.872-3.848,1.872
		c-2.548,0-3.848-1.794-3.848-3.614c0-3.042,2.704-4.706,7.566-4.68v-0.261c0-1.04-0.286-2.912-2.86-2.912
		c-1.17,0-2.392,0.364-3.276,0.937l-0.52-1.508c1.04-0.677,2.548-1.119,4.134-1.119c3.848,0,4.784,2.627,4.784,5.148v4.707
		c0,1.092,0.052,2.158,0.208,3.016H107.993z M107.655,190.484c-2.496-0.053-5.33,0.39-5.33,2.834c0,1.482,0.988,2.184,2.158,2.184
		c1.638,0,2.678-1.04,3.042-2.105c0.078-0.234,0.13-0.494,0.13-0.729V190.484z"/>
	<path fill="#FFFFFF" d="M113.244,194.566c0.676,0.441,1.872,0.91,3.016,0.91c1.664,0,2.444-0.832,2.444-1.873
		c0-1.092-0.65-1.689-2.34-2.313c-2.262-0.806-3.328-2.054-3.328-3.562c0-2.029,1.638-3.693,4.342-3.693
		c1.274,0,2.392,0.365,3.094,0.781l-0.572,1.664c-0.494-0.312-1.404-0.729-2.574-0.729c-1.353,0-2.106,0.779-2.106,1.716
		c0,1.04,0.754,1.509,2.392,2.132c2.184,0.832,3.302,1.924,3.302,3.797c0,2.21-1.716,3.77-4.706,3.77
		c-1.378,0-2.652-0.338-3.536-0.857L113.244,194.566z"/>
	<path fill="#FFFFFF" d="M41.551,209.646v15.21c0,1.118,0.026,2.393,0.104,3.25H39.6l-0.104-2.184h-0.052
		c-0.702,1.404-2.236,2.471-4.29,2.471c-3.042,0-5.382-2.574-5.382-6.396c-0.026-4.187,2.574-6.761,5.642-6.761
		c1.924,0,3.224,0.91,3.796,1.925h0.052v-7.515H41.551z M39.262,220.644c0-0.286-0.026-0.676-0.104-0.962
		c-0.338-1.456-1.586-2.652-3.302-2.652c-2.366,0-3.77,2.08-3.77,4.862c0,2.548,1.248,4.654,3.718,4.654
		c1.534,0,2.938-1.015,3.354-2.729c0.078-0.312,0.104-0.625,0.104-0.988V220.644z"/>
	<path fill="#FFFFFF" d="M56.735,221.71c0,4.653-3.224,6.683-6.266,6.683c-3.406,0-6.032-2.496-6.032-6.475
		c0-4.213,2.756-6.683,6.24-6.683C54.29,215.235,56.735,217.861,56.735,221.71z M46.75,221.84c0,2.756,1.586,4.836,3.822,4.836
		c2.185,0,3.822-2.054,3.822-4.889c0-2.131-1.066-4.836-3.77-4.836S46.75,219.447,46.75,221.84z"/>
	<path fill="#FFFFFF" d="M68.044,222.594l-1.82,5.512h-2.34l5.954-17.524h2.73l5.98,17.524H76.13l-1.872-5.512H68.044z
		 M73.79,220.826l-1.716-5.045c-0.39-1.144-0.65-2.184-0.91-3.197h-0.052c-0.26,1.039-0.546,2.105-0.884,3.172l-1.716,5.07H73.79z"
		/>
	<path fill="#FFFFFF" d="M80.966,219.63c0-1.612-0.052-2.912-0.104-4.108h2.054l0.104,2.158h0.052
		c0.937-1.534,2.418-2.444,4.473-2.444c3.042,0,5.33,2.574,5.33,6.396c0,4.524-2.756,6.761-5.72,6.761
		c-1.664,0-3.12-0.729-3.875-1.977h-0.052v6.838h-2.262V219.63z M83.228,222.984c0,0.338,0.052,0.649,0.104,0.936
		c0.416,1.586,1.794,2.678,3.432,2.678c2.418,0,3.822-1.976,3.822-4.861c0-2.522-1.326-4.681-3.744-4.681
		c-1.56,0-3.016,1.118-3.458,2.834c-0.078,0.286-0.156,0.624-0.156,0.937V222.984z"/>
	<path fill="#FFFFFF" d="M107.148,221.71c0,4.653-3.224,6.683-6.267,6.683c-3.406,0-6.032-2.496-6.032-6.475
		c0-4.213,2.756-6.683,6.24-6.683C104.704,215.235,107.148,217.861,107.148,221.71z M97.164,221.84c0,2.756,1.586,4.836,3.822,4.836
		c2.184,0,3.822-2.054,3.822-4.889c0-2.131-1.066-4.836-3.77-4.836S97.164,219.447,97.164,221.84z"/>
	<path fill="#FFFFFF" d="M112.582,211.985c0.026,0.78-0.546,1.404-1.456,1.404c-0.806,0-1.378-0.624-1.378-1.404
		c0-0.806,0.598-1.431,1.43-1.431C112.036,210.555,112.582,211.18,112.582,211.985z M110.033,228.105v-12.584h2.288v12.584H110.033z
		"/>
	<path fill="#FFFFFF" d="M127.506,221.71c0,4.653-3.224,6.683-6.266,6.683c-3.406,0-6.032-2.496-6.032-6.475
		c0-4.213,2.756-6.683,6.24-6.683C125.062,215.235,127.506,217.861,127.506,221.71z M117.522,221.84
		c0,2.756,1.586,4.836,3.822,4.836c2.185,0,3.822-2.054,3.822-4.889c0-2.131-1.066-4.836-3.77-4.836S117.522,219.447,117.522,221.84
		z"/>
</g>
<g>
	<path fill="#FFFFFF" d="M329.975,48.596c0.988-0.208,2.548-0.364,4.134-0.364c2.262,0,3.718,0.391,4.81,1.274
		c0.91,0.676,1.456,1.716,1.456,3.094c0,1.69-1.118,3.173-2.964,3.849V56.5c1.664,0.416,3.614,1.794,3.614,4.395
		c0,1.508-0.598,2.652-1.482,3.51c-1.222,1.118-3.198,1.639-6.058,1.639c-1.56,0-2.756-0.104-3.51-0.208V48.596z M332.238,55.772
		h2.054c2.392,0,3.796-1.248,3.796-2.938c0-2.054-1.56-2.86-3.848-2.86c-1.04,0-1.638,0.078-2.002,0.156V55.772z M332.238,64.171
		c0.442,0.077,1.092,0.104,1.898,0.104c2.34,0,4.498-0.858,4.498-3.406c0-2.392-2.054-3.38-4.524-3.38h-1.872V64.171z"/>
	<path fill="#FFFFFF" d="M356.314,65.314c-0.832,0.416-2.496,0.832-4.628,0.832c-4.94,0-8.658-3.12-8.658-8.866
		c0-5.486,3.718-9.204,9.152-9.204c2.184,0,3.562,0.468,4.16,0.779l-0.546,1.847c-0.858-0.416-2.08-0.729-3.536-0.729
		c-4.108,0-6.838,2.626-6.838,7.229c0,4.29,2.47,7.046,6.734,7.046c1.378,0,2.782-0.285,3.692-0.728L356.314,65.314z"/>
	<path fill="#FFFFFF" d="M370.847,65.314c-0.832,0.416-2.496,0.832-4.628,0.832c-4.94,0-8.658-3.12-8.658-8.866
		c0-5.486,3.718-9.204,9.152-9.204c2.184,0,3.562,0.468,4.16,0.779l-0.546,1.847c-0.858-0.416-2.08-0.729-3.536-0.729
		c-4.108,0-6.838,2.626-6.838,7.229c0,4.29,2.47,7.046,6.734,7.046c1.378,0,2.782-0.285,3.692-0.728L370.847,65.314z"/>
	<path fill="#FFFFFF" d="M379.114,56.708c0-1.3-0.026-2.366-0.104-3.406h2.028l0.13,2.08h0.052c0.624-1.195,2.08-2.366,4.16-2.366
		c1.742,0,4.445,1.04,4.445,5.356v7.515h-2.287v-7.255c0-2.027-0.754-3.718-2.912-3.718c-1.508,0-2.678,1.066-3.068,2.34
		c-0.104,0.286-0.156,0.677-0.156,1.066v7.566h-2.288V56.708z"/>
	<path fill="#FFFFFF" d="M404.933,59.49c0,4.654-3.225,6.683-6.268,6.683c-3.406,0-6.031-2.496-6.031-6.475
		c0-4.212,2.756-6.683,6.24-6.683C402.488,53.016,404.933,55.643,404.933,59.49z M394.948,59.62c0,2.756,1.586,4.836,3.822,4.836
		c2.184,0,3.82-2.054,3.82-4.888c0-2.132-1.064-4.836-3.77-4.836C396.118,54.732,394.948,57.229,394.948,59.62z"/>
	<path fill="#FFFFFF" d="M344.367,89.39c-0.13-2.443-0.286-5.382-0.26-7.566h-0.078c-0.598,2.055-1.326,4.238-2.21,6.656
		l-3.094,8.503h-1.716l-2.834-8.347c-0.832-2.47-1.534-4.732-2.028-6.812h-0.052c-0.052,2.185-0.182,5.123-0.338,7.749l-0.468,7.514
		h-2.158l1.222-17.524h2.886l2.99,8.477c0.728,2.158,1.326,4.082,1.768,5.902h0.078c0.442-1.769,1.066-3.692,1.846-5.902l3.12-8.477
		h2.886l1.092,17.524h-2.21L344.367,89.39z"/>
	<path fill="#FFFFFF" d="M361.032,93.654c0,1.3,0.026,2.444,0.104,3.432h-2.028l-0.13-2.054h-0.052
		c-0.598,1.014-1.924,2.34-4.16,2.34c-1.976,0-4.342-1.092-4.342-5.512v-7.358h2.288v6.968c0,2.393,0.729,4.005,2.809,4.005
		c1.534,0,2.6-1.066,3.016-2.08c0.13-0.339,0.208-0.755,0.208-1.171v-7.722h2.288V93.654z"/>
	<path fill="#FFFFFF" d="M364.827,87.908c0-1.301-0.026-2.366-0.104-3.406h2.028l0.13,2.08h0.052c0.624-1.196,2.08-2.366,4.16-2.366
		c1.742,0,4.446,1.04,4.446,5.356v7.514h-2.288v-7.254c0-2.028-0.754-3.718-2.912-3.718c-1.508,0-2.678,1.065-3.068,2.34
		c-0.104,0.286-0.156,0.676-0.156,1.065v7.566h-2.288V87.908z"/>
	<path fill="#FFFFFF" d="M390.126,78.626v15.21c0,1.118,0.025,2.393,0.104,3.25h-2.055l-0.104-2.184h-0.053
		c-0.701,1.404-2.235,2.47-4.29,2.47c-3.042,0-5.382-2.574-5.382-6.396c-0.026-4.186,2.574-6.76,5.642-6.76
		c1.924,0,3.225,0.91,3.796,1.924h0.052v-7.514H390.126z M387.837,89.624c0-0.286-0.025-0.676-0.104-0.962
		c-0.338-1.456-1.586-2.652-3.302-2.652c-2.366,0-3.77,2.08-3.77,4.862c0,2.548,1.248,4.654,3.718,4.654
		c1.534,0,2.938-1.015,3.354-2.73c0.078-0.312,0.104-0.624,0.104-0.988V89.624z"/>
	<path fill="#FFFFFF" d="M405.31,90.69c0,4.653-3.225,6.682-6.266,6.682c-3.406,0-6.033-2.496-6.033-6.474
		c0-4.213,2.756-6.683,6.24-6.683C402.865,84.216,405.31,86.842,405.31,90.69z M395.325,90.82c0,2.756,1.586,4.836,3.822,4.836
		c2.184,0,3.822-2.054,3.822-4.889c0-2.132-1.066-4.836-3.771-4.836C396.495,85.932,395.325,88.428,395.325,90.82z"/>
</g>
<g>
	<path fill="#FFFFFF" d="M650.559,109.54h-6.812v6.318h7.592v1.898h-9.854v-17.524h9.464v1.898h-7.201v5.538h6.812V109.54z"/>
	<path fill="#FFFFFF" d="M654.198,108.578c0-1.3-0.026-2.366-0.104-3.406h2.028l0.13,2.08h0.052c0.624-1.196,2.08-2.366,4.16-2.366
		c1.742,0,4.446,1.04,4.446,5.356v7.514h-2.288v-7.254c0-2.028-0.754-3.718-2.912-3.718c-1.508,0-2.678,1.066-3.068,2.34
		c-0.104,0.286-0.156,0.676-0.156,1.066v7.566h-2.287V108.578z"/>
	<path fill="#FFFFFF" d="M677.598,117.289c-0.598,0.312-1.924,0.728-3.614,0.728c-3.796,0-6.266-2.574-6.266-6.422
		c0-3.874,2.652-6.683,6.76-6.683c1.353,0,2.549,0.338,3.172,0.65l-0.52,1.768c-0.546-0.312-1.404-0.598-2.652-0.598
		c-2.886,0-4.445,2.132-4.445,4.758c0,2.912,1.871,4.706,4.367,4.706c1.301,0,2.158-0.338,2.809-0.624L677.598,117.289z"/>
	<path fill="#FFFFFF" d="M691.509,111.36c0,4.654-3.225,6.683-6.267,6.683c-3.406,0-6.032-2.496-6.032-6.475
		c0-4.212,2.756-6.682,6.24-6.682C689.064,104.886,691.509,107.512,691.509,111.36z M681.525,111.49
		c0,2.756,1.586,4.836,3.821,4.836c2.185,0,3.822-2.054,3.822-4.888c0-2.132-1.065-4.836-3.771-4.836
		C682.695,106.602,681.525,109.098,681.525,111.49z"/>
	<path fill="#FFFFFF" d="M694.394,108.578c0-1.3-0.025-2.366-0.104-3.406h2.027l0.131,2.08h0.052c0.624-1.196,2.08-2.366,4.16-2.366
		c1.741,0,4.446,1.04,4.446,5.356v7.514h-2.289v-7.254c0-2.028-0.754-3.718-2.912-3.718c-1.508,0-2.678,1.066-3.067,2.34
		c-0.104,0.286-0.156,0.676-0.156,1.066v7.566h-2.288V108.578z"/>
	<path fill="#FFFFFF" d="M711.476,101.558v3.614h3.275v1.742h-3.275v6.786c0,1.56,0.441,2.444,1.716,2.444
		c0.599,0,1.04-0.078,1.326-0.156l0.104,1.716c-0.442,0.182-1.145,0.312-2.028,0.312c-1.066,0-1.925-0.338-2.47-0.962
		c-0.65-0.676-0.885-1.794-0.885-3.276v-6.864h-1.95v-1.742h1.95v-3.016L711.476,101.558z"/>
	<path fill="#FFFFFF" d="M717.325,109.098c0-1.482-0.025-2.756-0.104-3.926h2.002l0.078,2.47h0.104
		c0.572-1.69,1.95-2.756,3.484-2.756c0.26,0,0.441,0.026,0.65,0.078v2.158c-0.234-0.052-0.469-0.078-0.78-0.078
		c-1.612,0-2.757,1.222-3.068,2.938c-0.052,0.312-0.104,0.676-0.104,1.066v6.708h-2.262V109.098z"/>
	<path fill="#FFFFFF" d="M736.956,111.36c0,4.654-3.225,6.683-6.267,6.683c-3.405,0-6.032-2.496-6.032-6.475
		c0-4.212,2.756-6.682,6.24-6.682C734.512,104.886,736.956,107.512,736.956,111.36z M726.972,111.49
		c0,2.756,1.586,4.836,3.822,4.836c2.184,0,3.822-2.054,3.822-4.888c0-2.132-1.066-4.836-3.771-4.836
		S726.972,109.098,726.972,111.49z"/>
	<path fill="#FFFFFF" d="M668.85,131.666c0.988-0.208,2.548-0.364,4.134-0.364c2.263,0,3.719,0.39,4.811,1.274
		c0.91,0.676,1.456,1.716,1.456,3.094c0,1.69-1.118,3.172-2.964,3.848v0.053c1.664,0.416,3.613,1.793,3.613,4.394
		c0,1.509-0.598,2.651-1.481,3.511c-1.222,1.117-3.198,1.637-6.058,1.637c-1.561,0-2.757-0.104-3.511-0.207V131.666z
		 M671.113,138.842h2.054c2.392,0,3.796-1.248,3.796-2.938c0-2.054-1.561-2.86-3.848-2.86c-1.041,0-1.639,0.078-2.002,0.156V138.842
		z M671.113,147.24c0.441,0.078,1.092,0.104,1.897,0.104c2.34,0,4.498-0.857,4.498-3.406c0-2.392-2.054-3.38-4.524-3.38h-1.871
		V147.24z"/>
	<path fill="#FFFFFF" d="M695.189,148.385c-0.832,0.416-2.496,0.832-4.629,0.832c-4.939,0-8.658-3.121-8.658-8.867
		c0-5.486,3.719-9.204,9.152-9.204c2.184,0,3.562,0.468,4.16,0.78l-0.546,1.846c-0.858-0.416-2.08-0.728-3.536-0.728
		c-4.108,0-6.838,2.626-6.838,7.228c0,4.291,2.47,7.047,6.734,7.047c1.377,0,2.781-0.287,3.691-0.729L695.189,148.385z"/>
	<path fill="#FFFFFF" d="M709.722,148.385c-0.832,0.416-2.496,0.832-4.629,0.832c-4.939,0-8.658-3.121-8.658-8.867
		c0-5.486,3.719-9.204,9.152-9.204c2.185,0,3.562,0.468,4.16,0.78l-0.545,1.846c-0.858-0.416-2.08-0.728-3.537-0.728
		c-4.107,0-6.838,2.626-6.838,7.228c0,4.291,2.471,7.047,6.734,7.047c1.378,0,2.782-0.287,3.691-0.729L709.722,148.385z"/>
</g>
</svg>
