<?xml version="1.0" encoding="utf-8"?>
<!-- Generator: Adobe Illustrator 16.0.0, SVG Export Plug-In . SVG Version: 6.00 Build 0)  -->
<!DOCTYPE svg PUBLIC "-//W3C//DTD SVG 1.1//EN" "http://www.w3.org/Graphics/SVG/1.1/DTD/svg11.dtd">
<svg version="1.1" id="Layer_1" xmlns="http://www.w3.org/2000/svg" xmlns:xlink="http://www.w3.org/1999/xlink" x="0px" y="0px"
	 width="768.631px" height="278px" viewBox="0 0 768.631 278" enable-background="new 0 0 768.631 278" xml:space="preserve">
<circle fill="#4DAE4C" stroke="#FFFFFF" stroke-width="2" stroke-miterlimit="10" cx="80.22" cy="206.249" r="67.798"/>
<circle fill="#4DAE4C" stroke="#FFFFFF" stroke-width="2" stroke-miterlimit="10" cx="369.22" cy="72.902" r="67.798"/>
<circle fill="#4DAE4C" stroke="#FFFFFF" stroke-width="2" stroke-miterlimit="10" cx="691.22" cy="123.902" r="67.798"/>
<path fill="#FFFFFF" d="M141.771,179.256l-0.841-1.8c45.297-21.159,105.103-49.06,166.033-77.235l0.834,1.802
	C246.87,130.197,187.065,158.097,141.771,179.256z"/>
<path stroke="#000000" stroke-width="2" stroke-miterlimit="10" d="M689.905,124.094"/>
<rect x="434.894" y="97.374" transform="matrix(0.9874 0.1583 -0.1583 0.9874 22.2705 -82.7658)" fill="#FFFFFF" width="191.258" height="2"/>
<g>
	<path fill="#FFFFFF" d="M59.793,199.357H54.41v-1.942h13.102v1.942h-5.408v15.753h-2.311V199.357z"/>
	<path fill="#FFFFFF" d="M81.139,214.533c-0.84,0.42-2.521,0.84-4.673,0.84c-4.989,0-8.743-3.149-8.743-8.952
		c0-5.54,3.754-9.295,9.241-9.295c2.206,0,3.598,0.473,4.201,0.788l-0.552,1.863c-0.866-0.42-2.101-0.734-3.569-0.734
		c-4.148,0-6.906,2.651-6.906,7.3c0,4.331,2.495,7.115,6.801,7.115c1.392,0,2.809-0.289,3.729-0.735L81.139,214.533z"/>
	<path fill="#FFFFFF" d="M95.816,214.533c-0.841,0.42-2.52,0.84-4.674,0.84c-4.988,0-8.742-3.149-8.742-8.952
		c0-5.54,3.754-9.295,9.241-9.295c2.206,0,3.598,0.473,4.201,0.788l-0.552,1.863c-0.866-0.42-2.101-0.734-3.57-0.734
		c-4.148,0-6.905,2.651-6.905,7.3c0,4.331,2.494,7.115,6.8,7.115c1.392,0,2.81-0.289,3.729-0.735L95.816,214.533z"/>
	<path fill="#FFFFFF" d="M98.285,212.748c0.683,0.446,1.891,0.92,3.046,0.92c1.681,0,2.469-0.841,2.469-1.892
		c0-1.103-0.657-1.706-2.364-2.337c-2.284-0.813-3.36-2.074-3.36-3.597c0-2.048,1.653-3.729,4.385-3.729
		c1.286,0,2.415,0.368,3.124,0.788l-0.578,1.681c-0.499-0.315-1.417-0.735-2.599-0.735c-1.365,0-2.126,0.787-2.126,1.733
		c0,1.05,0.761,1.522,2.415,2.152c2.205,0.841,3.334,1.942,3.334,3.833c0,2.232-1.732,3.807-4.752,3.807
		c-1.392,0-2.678-0.341-3.571-0.865L98.285,212.748z"/>
</g>
<g>
	<path fill="#FFFFFF" d="M340.416,71.381c-0.132-2.469-0.289-5.435-0.263-7.641h-0.079c-0.604,2.074-1.339,4.279-2.231,6.721
		l-3.124,8.586h-1.733l-2.861-8.429c-0.841-2.495-1.549-4.778-2.049-6.878h-0.052c-0.053,2.206-0.184,5.172-0.342,7.824
		l-0.473,7.588h-2.179l1.234-17.697h2.914l3.02,8.56c0.735,2.179,1.339,4.122,1.785,5.959h0.079
		c0.446-1.784,1.076-3.728,1.863-5.959l3.15-8.56h2.915l1.103,17.697h-2.231L340.416,71.381z"/>
	<path fill="#FFFFFF" d="M353.729,79.152l-0.185-1.602h-0.078c-0.71,0.998-2.074,1.89-3.886,1.89c-2.573,0-3.886-1.812-3.886-3.649
		c0-3.072,2.73-4.752,7.641-4.726v-0.262c0-1.05-0.289-2.94-2.889-2.94c-1.182,0-2.416,0.367-3.308,0.945l-0.525-1.523
		c1.05-0.683,2.573-1.128,4.175-1.128c3.886,0,4.83,2.651,4.83,5.198v4.752c0,1.103,0.053,2.179,0.211,3.046H353.729z
		 M353.387,72.667c-2.521-0.052-5.383,0.394-5.383,2.862c0,1.496,0.999,2.205,2.18,2.205c1.654,0,2.704-1.05,3.072-2.126
		c0.079-0.236,0.131-0.499,0.131-0.735V72.667z"/>
	<path fill="#FFFFFF" d="M362.025,62.794v3.65h3.309v1.759h-3.309v6.853c0,1.576,0.446,2.467,1.733,2.467
		c0.604,0,1.05-0.079,1.339-0.157l0.104,1.732c-0.446,0.184-1.154,0.315-2.047,0.315c-1.077,0-1.943-0.341-2.495-0.971
		c-0.656-0.683-0.893-1.812-0.893-3.309v-6.931h-1.969v-1.759h1.969v-3.046L362.025,62.794z"/>
	<path fill="#FFFFFF" d="M367.934,70.409c0-1.497-0.026-2.783-0.104-3.964h2.021l0.078,2.494h0.105
		c0.577-1.706,1.969-2.783,3.518-2.783c0.264,0,0.446,0.026,0.657,0.079v2.179c-0.236-0.053-0.474-0.08-0.788-0.08
		c-1.628,0-2.783,1.235-3.098,2.968c-0.053,0.315-0.105,0.683-0.105,1.076v6.775h-2.284V70.409z"/>
	<path fill="#FFFFFF" d="M387.153,75.686c0,1.313,0.026,2.469,0.104,3.467h-2.047l-0.132-2.075h-0.052
		c-0.604,1.024-1.943,2.363-4.201,2.363c-1.996,0-4.385-1.103-4.385-5.566v-7.43h2.311v7.036c0,2.416,0.734,4.043,2.835,4.043
		c1.549,0,2.625-1.076,3.045-2.1c0.132-0.342,0.211-0.762,0.211-1.182v-7.798h2.311V75.686z"/>
	<path fill="#FFFFFF" d="M390.672,76.789c0.683,0.446,1.891,0.919,3.047,0.919c1.679,0,2.468-0.84,2.468-1.89
		c0-1.104-0.656-1.707-2.363-2.337c-2.285-0.814-3.361-2.074-3.361-3.597c0-2.048,1.654-3.728,4.386-3.728
		c1.285,0,2.415,0.367,3.124,0.788l-0.578,1.68c-0.499-0.315-1.418-0.734-2.599-0.734c-1.365,0-2.126,0.788-2.126,1.732
		c0,1.05,0.761,1.522,2.414,2.153c2.206,0.84,3.334,1.943,3.334,3.833c0,2.232-1.732,3.808-4.752,3.808
		c-1.392,0-2.678-0.341-3.57-0.866L390.672,76.789z"/>
	<path fill="#FFFFFF" d="M401.385,70.593c0-1.627-0.053-2.941-0.104-4.148h2.074l0.104,2.179h0.053
		c0.945-1.549,2.442-2.467,4.516-2.467c3.072,0,5.383,2.6,5.383,6.459c0,4.568-2.783,6.826-5.777,6.826
		c-1.679,0-3.151-0.735-3.912-1.996h-0.052v6.905h-2.284V70.593z M403.669,73.979c0,0.342,0.052,0.656,0.105,0.944
		c0.42,1.603,1.812,2.705,3.465,2.705c2.441,0,3.86-1.995,3.86-4.91c0-2.547-1.34-4.726-3.78-4.726
		c-1.575,0-3.047,1.129-3.492,2.862c-0.079,0.289-0.158,0.63-0.158,0.945V73.979z"/>
</g>
<g>
	<path fill="#FFFFFF" d="M673.74,116.682c-1.003,0.361-2.984,0.954-5.328,0.954c-2.625,0-4.786-0.671-6.486-2.292
		c-1.493-1.442-2.419-3.758-2.419-6.462c0.025-5.173,3.577-8.956,9.395-8.956c2.008,0,3.578,0.437,4.325,0.797l-0.542,1.827
		c-0.927-0.41-2.084-0.745-3.834-0.745c-4.223,0-6.976,2.626-6.976,6.976c0,4.401,2.65,7.001,6.691,7.001
		c1.468,0,2.471-0.205,2.986-0.464v-5.173h-3.526v-1.802h5.714V116.682z"/>
	<path fill="#FFFFFF" d="M677.088,108.882c0-1.466-0.026-2.728-0.104-3.886h1.982l0.076,2.445h0.104
		c0.566-1.672,1.93-2.729,3.449-2.729c0.257,0,0.437,0.025,0.643,0.077v2.137c-0.231-0.052-0.463-0.077-0.772-0.077
		c-1.597,0-2.728,1.21-3.037,2.907c-0.052,0.31-0.103,0.671-0.103,1.057v6.642h-2.239V108.882z"/>
	<path fill="#FFFFFF" d="M692.274,117.455l-0.181-1.57h-0.077c-0.695,0.978-2.033,1.853-3.809,1.853
		c-2.523,0-3.809-1.776-3.809-3.579c0-3.01,2.676-4.657,7.489-4.633v-0.257c0-1.029-0.285-2.883-2.832-2.883
		c-1.157,0-2.367,0.361-3.243,0.926l-0.515-1.491c1.029-0.67,2.522-1.107,4.093-1.107c3.81,0,4.736,2.599,4.736,5.097v4.659
		c0,1.08,0.051,2.135,0.205,2.986H692.274z M691.938,111.098c-2.47-0.053-5.274,0.386-5.274,2.804c0,1.468,0.979,2.163,2.135,2.163
		c1.623,0,2.652-1.03,3.013-2.085c0.077-0.231,0.127-0.489,0.127-0.722V111.098z"/>
	<path fill="#FFFFFF" d="M708.544,99.18v15.058c0,1.106,0.024,2.366,0.101,3.218h-2.033l-0.103-2.163h-0.051
		c-0.695,1.39-2.213,2.445-4.247,2.445c-3.011,0-5.329-2.549-5.329-6.333c-0.024-4.144,2.549-6.691,5.586-6.691
		c1.905,0,3.192,0.901,3.758,1.904h0.053V99.18H708.544z M706.278,110.066c0-0.283-0.026-0.669-0.104-0.952
		c-0.335-1.441-1.571-2.625-3.27-2.625c-2.342,0-3.732,2.059-3.732,4.813c0,2.522,1.236,4.607,3.682,4.607
		c1.519,0,2.908-1.004,3.32-2.703c0.077-0.309,0.104-0.618,0.104-0.979V110.066z"/>
	<path fill="#FFFFFF" d="M713.563,111.636c0.051,3.064,2.007,4.325,4.272,4.325c1.621,0,2.6-0.283,3.449-0.644l0.386,1.622
		c-0.797,0.36-2.162,0.771-4.144,0.771c-3.836,0-6.127-2.522-6.127-6.279c0-3.759,2.214-6.719,5.844-6.719
		c4.065,0,5.146,3.579,5.146,5.869c0,0.463-0.051,0.822-0.076,1.054H713.563z M720.204,110.015c0.025-1.439-0.593-3.68-3.141-3.68
		c-2.291,0-3.296,2.11-3.476,3.68H720.204z"/>
	<path fill="#FFFFFF" d="M652.787,147.777c-0.822,0.411-2.471,0.823-4.581,0.823c-4.89,0-8.57-3.088-8.57-8.777
		c0-5.431,3.681-9.111,9.059-9.111c2.162,0,3.527,0.464,4.119,0.771l-0.54,1.828c-0.851-0.412-2.061-0.721-3.501-0.721
		c-4.067,0-6.77,2.6-6.77,7.156c0,4.246,2.444,6.976,6.666,6.976c1.365,0,2.754-0.284,3.655-0.722L652.787,147.777z"/>
	<path fill="#FFFFFF" d="M665.632,144.946c0,1.286,0.026,2.42,0.103,3.396h-2.007l-0.128-2.033h-0.052
		c-0.593,1.005-1.904,2.316-4.118,2.316c-1.956,0-4.299-1.08-4.299-5.456v-7.284h2.265v6.898c0,2.367,0.721,3.964,2.781,3.964
		c1.518,0,2.573-1.056,2.985-2.06c0.127-0.334,0.205-0.746,0.205-1.158v-7.645h2.265V144.946z"/>
	<path fill="#FFFFFF" d="M669.392,139.772c0-1.468-0.026-2.728-0.104-3.887h1.982l0.076,2.445h0.104
		c0.566-1.673,1.93-2.729,3.448-2.729c0.258,0,0.439,0.025,0.645,0.078v2.136c-0.231-0.051-0.463-0.077-0.771-0.077
		c-1.597,0-2.729,1.209-3.039,2.908c-0.051,0.31-0.102,0.669-0.102,1.055v6.641h-2.239V139.772z"/>
	<path fill="#FFFFFF" d="M677.911,139.772c0-1.468-0.026-2.728-0.102-3.887h1.981l0.077,2.445h0.103
		c0.566-1.673,1.931-2.729,3.448-2.729c0.259,0,0.438,0.025,0.644,0.078v2.136c-0.231-0.051-0.464-0.077-0.771-0.077
		c-1.595,0-2.729,1.209-3.037,2.908c-0.051,0.31-0.103,0.669-0.103,1.055v6.641h-2.24V139.772z"/>
	<path fill="#FFFFFF" d="M688.955,132.385c0.024,0.773-0.541,1.39-1.443,1.39c-0.796,0-1.363-0.616-1.363-1.39
		c0-0.798,0.592-1.415,1.416-1.415C688.414,130.97,688.955,131.587,688.955,132.385z M686.433,148.343v-12.457h2.265v12.457H686.433
		z"/>
	<path fill="#FFFFFF" d="M701.336,147.88c-0.594,0.309-1.905,0.721-3.579,0.721c-3.758,0-6.203-2.548-6.203-6.357
		c0-3.834,2.626-6.615,6.691-6.615c1.339,0,2.523,0.335,3.142,0.644l-0.515,1.751c-0.54-0.31-1.391-0.593-2.627-0.593
		c-2.856,0-4.399,2.111-4.399,4.711c0,2.883,1.853,4.658,4.323,4.658c1.287,0,2.137-0.335,2.779-0.618L701.336,147.88z"/>
	<path fill="#FFFFFF" d="M714.41,144.946c0,1.286,0.026,2.42,0.105,3.396h-2.009l-0.13-2.033h-0.051
		c-0.592,1.005-1.904,2.316-4.118,2.316c-1.956,0-4.299-1.08-4.299-5.456v-7.284h2.266v6.898c0,2.367,0.72,3.964,2.779,3.964
		c1.521,0,2.575-1.056,2.986-2.06c0.129-0.334,0.205-0.746,0.205-1.158v-7.645h2.265V144.946z"/>
	<path fill="#FFFFFF" d="M718.172,130.068h2.264v18.274h-2.264V130.068z"/>
	<path fill="#FFFFFF" d="M731.144,148.343l-0.18-1.569h-0.078c-0.695,0.978-2.033,1.853-3.811,1.853
		c-2.521,0-3.808-1.774-3.808-3.576c0-3.013,2.677-4.659,7.489-4.635v-0.256c0-1.03-0.282-2.883-2.831-2.883
		c-1.158,0-2.368,0.36-3.243,0.927l-0.515-1.494c1.03-0.669,2.522-1.106,4.093-1.106c3.809,0,4.735,2.601,4.735,5.097v4.658
		c0,1.081,0.052,2.137,0.207,2.985H731.144z M730.809,141.985c-2.472-0.051-5.277,0.388-5.277,2.807
		c0,1.467,0.979,2.161,2.136,2.161c1.623,0,2.652-1.028,3.014-2.084c0.076-0.232,0.128-0.489,0.128-0.722V141.985z"/>
	<path fill="#FFFFFF" d="M736.652,139.772c0-1.468-0.025-2.728-0.104-3.887h1.981l0.077,2.445h0.104
		c0.565-1.673,1.931-2.729,3.449-2.729c0.258,0,0.438,0.025,0.645,0.078v2.136c-0.231-0.051-0.463-0.077-0.774-0.077
		c-1.594,0-2.728,1.209-3.036,2.908c-0.052,0.31-0.103,0.669-0.103,1.055v6.641h-2.239V139.772z"/>
</g>
</svg>
