<?xml version="1.0" encoding="utf-8"?>
<!-- Generator: Adobe Illustrator 16.0.0, SVG Export Plug-In . SVG Version: 6.00 Build 0)  -->
<!DOCTYPE svg PUBLIC "-//W3C//DTD SVG 1.1//EN" "http://www.w3.org/Graphics/SVG/1.1/DTD/svg11.dtd">
<svg version="1.1" id="Layer_1" xmlns="http://www.w3.org/2000/svg" xmlns:xlink="http://www.w3.org/1999/xlink" x="0px" y="0px"
	 width="768.631px" height="278px" viewBox="0 0 768.631 278" enable-background="new 0 0 768.631 278" xml:space="preserve">
<circle fill="#3374B9" stroke="#FFFFFF" stroke-width="2" stroke-miterlimit="10" cx="78.22" cy="206.201" r="67.798"/>
<circle fill="#3374B9" stroke="#FFFFFF" stroke-width="2" stroke-miterlimit="10" cx="367.22" cy="72.854" r="67.798"/>
<circle fill="#3374B9" stroke="#FFFFFF" stroke-width="2" stroke-miterlimit="10" cx="689.22" cy="123.854" r="67.798"/>
<path fill="#FFFFFF" d="M139.771,179.208l-0.841-1.8c45.297-21.159,105.103-49.06,166.033-77.235l0.834,1.802
	C244.87,130.149,185.065,158.049,139.771,179.208z"/>
<path fill="#231F20" stroke="#231F20" stroke-width="2" stroke-miterlimit="10" d="M687.906,124.046"/>
<rect x="432.894" y="97.326" transform="matrix(0.9874 0.1583 -0.1583 0.9874 22.2377 -82.4497)" fill="#FFFFFF" width="191.258" height="2"/>
<g>
	<path fill="#FFFFFF" d="M36.412,215.068v-17.525h2.471l5.616,8.867c1.3,2.053,2.313,3.9,3.146,5.693l0.053-0.025
		c-0.208-2.34-0.261-4.473-0.261-7.203v-7.332h2.133v17.525h-2.288l-5.564-8.893c-1.223-1.949-2.393-3.953-3.276-5.85l-0.078,0.025
		c0.13,2.211,0.183,4.316,0.183,7.229v7.488H36.412z"/>
	<path fill="#FFFFFF" d="M64.831,208.672c0,4.654-3.225,6.682-6.267,6.682c-3.406,0-6.032-2.496-6.032-6.475
		c0-4.211,2.756-6.682,6.24-6.682C62.387,202.197,64.831,204.824,64.831,208.672z M54.847,208.803c0,2.756,1.586,4.836,3.822,4.836
		c2.184,0,3.821-2.055,3.821-4.889c0-2.133-1.065-4.836-3.77-4.836S54.847,206.41,54.847,208.803z"/>
	<path fill="#FFFFFF" d="M70.473,198.869v3.615h3.275v1.742h-3.275v6.785c0,1.561,0.441,2.443,1.716,2.443
		c0.598,0,1.04-0.076,1.326-0.154l0.104,1.715c-0.441,0.182-1.144,0.312-2.027,0.312c-1.066,0-1.925-0.338-2.471-0.963
		c-0.649-0.676-0.884-1.793-0.884-3.275v-6.863h-1.95v-1.742h1.95v-3.018L70.473,198.869z"/>
	<path fill="#FFFFFF" d="M80.977,197.049l-3.172,3.719h-1.639l2.288-3.719H80.977z M76.323,215.068v-12.584h2.288v12.584H76.323z"/>
	<path fill="#FFFFFF" d="M91.377,214.6c-0.599,0.312-1.925,0.729-3.614,0.729c-3.797,0-6.267-2.574-6.267-6.422
		c0-3.875,2.652-6.684,6.761-6.684c1.352,0,2.548,0.34,3.172,0.65l-0.521,1.77c-0.546-0.312-1.403-0.6-2.651-0.6
		c-2.887,0-4.446,2.133-4.446,4.76c0,2.912,1.872,4.705,4.368,4.705c1.3,0,2.158-0.338,2.808-0.623L91.377,214.6z"/>
	<path fill="#FFFFFF" d="M96.603,198.947c0.025,0.779-0.546,1.404-1.456,1.404c-0.807,0-1.378-0.625-1.378-1.404
		c0-0.807,0.598-1.43,1.43-1.43C96.057,197.518,96.603,198.141,96.603,198.947z M94.054,215.068v-12.584h2.288v12.584H94.054z"/>
	<path fill="#FFFFFF" d="M107.107,215.068l-0.182-1.586h-0.078c-0.702,0.988-2.055,1.871-3.849,1.871
		c-2.548,0-3.848-1.793-3.848-3.613c0-3.043,2.704-4.707,7.566-4.68v-0.262c0-1.039-0.286-2.912-2.86-2.912
		c-1.17,0-2.393,0.365-3.276,0.938l-0.52-1.508c1.04-0.678,2.548-1.119,4.134-1.119c3.848,0,4.784,2.627,4.784,5.148v4.707
		c0,1.092,0.052,2.158,0.208,3.016H107.107z M106.769,208.646c-2.496-0.053-5.33,0.389-5.33,2.834c0,1.482,0.987,2.184,2.158,2.184
		c1.638,0,2.678-1.041,3.042-2.105c0.078-0.234,0.13-0.494,0.13-0.729V208.646z"/>
	<path fill="#FFFFFF" d="M112.358,212.729c0.677,0.441,1.872,0.91,3.017,0.91c1.664,0,2.444-0.832,2.444-1.873
		c0-1.092-0.65-1.689-2.341-2.314c-2.262-0.805-3.328-2.053-3.328-3.561c0-2.029,1.639-3.693,4.343-3.693
		c1.273,0,2.392,0.365,3.094,0.781l-0.572,1.664c-0.493-0.312-1.403-0.729-2.573-0.729c-1.353,0-2.106,0.779-2.106,1.715
		c0,1.041,0.754,1.51,2.392,2.133c2.185,0.832,3.303,1.924,3.303,3.797c0,2.209-1.716,3.77-4.706,3.77
		c-1.378,0-2.652-0.338-3.536-0.857L112.358,212.729z"/>
</g>
<g>
	<path fill="#FFFFFF" d="M321.33,61.362l-1.819,5.512h-2.341l5.955-17.524h2.729l5.98,17.524h-2.418l-1.872-5.512H321.33z
		 M327.077,59.594l-1.717-5.044c-0.39-1.145-0.649-2.185-0.91-3.198h-0.052c-0.26,1.04-0.546,2.106-0.884,3.172l-1.716,5.07H327.077
		z"/>
	<path fill="#FFFFFF" d="M342.99,66.406c-0.599,0.312-1.925,0.728-3.614,0.728c-3.797,0-6.267-2.573-6.267-6.422
		c0-3.874,2.652-6.683,6.761-6.683c1.352,0,2.548,0.339,3.172,0.65l-0.521,1.769c-0.546-0.312-1.403-0.599-2.651-0.599
		c-2.887,0-4.446,2.132-4.446,4.759c0,2.912,1.872,4.706,4.368,4.706c1.3,0,2.158-0.338,2.808-0.624L342.99,66.406z"/>
	<path fill="#FFFFFF" d="M356.9,60.478c0,4.654-3.225,6.683-6.267,6.683c-3.406,0-6.032-2.496-6.032-6.475
		c0-4.212,2.756-6.682,6.24-6.682C354.455,54.004,356.9,56.63,356.9,60.478z M346.915,60.608c0,2.756,1.586,4.836,3.822,4.836
		c2.184,0,3.821-2.055,3.821-4.889c0-2.132-1.065-4.836-3.77-4.836S346.915,58.216,346.915,60.608z"/>
	<path fill="#FFFFFF" d="M359.784,57.696c0-1.301-0.025-2.366-0.104-3.406h2.028l0.13,2.08h0.052c0.624-1.196,2.08-2.366,4.16-2.366
		c1.742,0,4.446,1.04,4.446,5.356v7.514h-2.288V59.62c0-2.028-0.754-3.719-2.912-3.719c-1.508,0-2.678,1.066-3.068,2.341
		c-0.104,0.286-0.156,0.676-0.156,1.065v7.566h-2.288V57.696z"/>
	<path fill="#FFFFFF" d="M376.866,50.676v3.614h3.276v1.742h-3.276v6.786c0,1.56,0.442,2.443,1.716,2.443
		c0.599,0,1.04-0.077,1.326-0.155l0.104,1.716c-0.442,0.182-1.145,0.312-2.028,0.312c-1.066,0-1.924-0.338-2.47-0.962
		c-0.65-0.676-0.885-1.794-0.885-3.275v-6.864h-1.949V54.29h1.949v-3.017L376.866,50.676z"/>
	<path fill="#FFFFFF" d="M383.835,60.998c0.052,3.094,2.027,4.368,4.316,4.368c1.638,0,2.625-0.286,3.483-0.65l0.39,1.639
		c-0.806,0.363-2.184,0.779-4.186,0.779c-3.874,0-6.188-2.548-6.188-6.344s2.236-6.786,5.902-6.786c4.108,0,5.2,3.614,5.2,5.928
		c0,0.469-0.052,0.832-0.078,1.066H383.835z M390.543,59.36c0.026-1.456-0.599-3.719-3.172-3.719c-2.314,0-3.328,2.132-3.511,3.719
		H390.543z"/>
	<path fill="#FFFFFF" d="M404.557,66.406c-0.598,0.312-1.924,0.728-3.614,0.728c-3.796,0-6.266-2.573-6.266-6.422
		c0-3.874,2.652-6.683,6.76-6.683c1.353,0,2.549,0.339,3.172,0.65l-0.52,1.769c-0.546-0.312-1.404-0.599-2.652-0.599
		c-2.886,0-4.445,2.132-4.445,4.759c0,2.912,1.871,4.706,4.367,4.706c1.301,0,2.158-0.338,2.809-0.624L404.557,66.406z"/>
	<path fill="#FFFFFF" d="M408.353,60.998c0.053,3.094,2.028,4.368,4.316,4.368c1.639,0,2.626-0.286,3.484-0.65l0.39,1.639
		c-0.806,0.363-2.185,0.779-4.187,0.779c-3.873,0-6.188-2.548-6.188-6.344s2.236-6.786,5.902-6.786c4.107,0,5.199,3.614,5.199,5.928
		c0,0.469-0.051,0.832-0.077,1.066H408.353z M415.062,59.36c0.025-1.456-0.599-3.719-3.173-3.719c-2.313,0-3.328,2.132-3.51,3.719
		H415.062z"/>
	<path fill="#FFFFFF" d="M332.198,88.896c0-1.3-0.025-2.366-0.104-3.406h2.028l0.13,2.08h0.052c0.624-1.196,2.08-2.366,4.16-2.366
		c1.742,0,4.446,1.04,4.446,5.356v7.515h-2.288v-7.255c0-2.027-0.754-3.718-2.912-3.718c-1.508,0-2.678,1.066-3.068,2.34
		c-0.104,0.286-0.156,0.676-0.156,1.066v7.566h-2.288V88.896z"/>
	<path fill="#FFFFFF" d="M358.017,91.678c0,4.654-3.224,6.683-6.266,6.683c-3.406,0-6.032-2.496-6.032-6.475
		c0-4.212,2.756-6.683,6.24-6.683C355.573,85.203,358.017,87.829,358.017,91.678z M348.032,91.808c0,2.756,1.586,4.836,3.822,4.836
		c2.185,0,3.822-2.054,3.822-4.888c0-2.132-1.066-4.836-3.771-4.836S348.032,89.416,348.032,91.808z"/>
	<path fill="#FFFFFF" d="M368.754,80.549v17.525h-2.262V80.549H368.754z"/>
	<path fill="#FFFFFF" d="M387.475,90.378c-0.13-2.444-0.286-5.383-0.26-7.566h-0.078c-0.599,2.054-1.326,4.238-2.21,6.656
		l-3.095,8.502h-1.716l-2.834-8.346c-0.832-2.471-1.534-4.732-2.028-6.812h-0.052c-0.052,2.184-0.183,5.122-0.338,7.748
		l-0.469,7.515h-2.157l1.222-17.525h2.886l2.99,8.477c0.729,2.158,1.326,4.082,1.769,5.902h0.078
		c0.441-1.768,1.065-3.692,1.846-5.902l3.12-8.477h2.886l1.093,17.525h-2.21L387.475,90.378z"/>
	<path fill="#FFFFFF" d="M402.685,89.857h-6.812v6.318h7.592v1.898h-9.854V80.549h9.464v1.898h-7.202v5.538h6.812V89.857z"/>
</g>
<g>
	<path fill="#FFFFFF" d="M660.103,132.343c-0.832,0.416-2.496,0.832-4.629,0.832c-4.939,0-8.658-3.12-8.658-8.866
		c0-5.486,3.719-9.204,9.152-9.204c2.184,0,3.562,0.468,4.16,0.78l-0.547,1.846c-0.857-0.416-2.08-0.728-3.535-0.728
		c-4.109,0-6.838,2.626-6.838,7.228c0,4.291,2.469,7.046,6.734,7.046c1.377,0,2.781-0.286,3.691-0.728L660.103,132.343z"/>
	<path fill="#FFFFFF" d="M673.96,126.519c0,4.654-3.225,6.683-6.268,6.683c-3.404,0-6.031-2.496-6.031-6.475
		c0-4.212,2.756-6.682,6.24-6.682C671.515,120.045,673.96,122.671,673.96,126.519z M663.976,126.649
		c0,2.756,1.586,4.836,3.822,4.836c2.184,0,3.822-2.054,3.822-4.888c0-2.132-1.066-4.836-3.771-4.836
		C665.146,121.761,663.976,124.257,663.976,126.649z"/>
	<path fill="#FFFFFF" d="M676.845,114.455h2.289v18.461h-2.289V114.455z"/>
	<path fill="#FFFFFF" d="M693.511,129.483c0,1.3,0.027,2.444,0.104,3.432h-2.027l-0.129-2.054h-0.053
		c-0.598,1.014-1.924,2.34-4.16,2.34c-1.977,0-4.342-1.092-4.342-5.512v-7.358h2.287v6.968c0,2.392,0.729,4.004,2.809,4.004
		c1.533,0,2.6-1.066,3.016-2.08c0.131-0.338,0.209-0.754,0.209-1.17v-7.722h2.287V129.483z"/>
	<path fill="#FFFFFF" d="M697.306,123.737c0-1.3-0.025-2.366-0.104-3.406h2.029l0.129,2.08h0.053c0.623-1.196,2.08-2.366,4.16-2.366
		c1.742,0,4.445,1.04,4.445,5.356v7.514h-2.287v-7.254c0-2.028-0.754-3.718-2.912-3.718c-1.508,0-2.68,1.066-3.068,2.34
		c-0.104,0.286-0.156,0.676-0.156,1.066v7.566h-2.289V123.737z"/>
	<path fill="#FFFFFF" d="M718.704,132.916l-0.182-1.586h-0.078c-0.701,0.988-2.055,1.872-3.848,1.872
		c-2.549,0-3.848-1.794-3.848-3.614c0-3.042,2.703-4.706,7.564-4.68v-0.26c0-1.04-0.285-2.912-2.859-2.912
		c-1.17,0-2.393,0.364-3.275,0.937l-0.521-1.508c1.041-0.676,2.549-1.118,4.135-1.118c3.848,0,4.785,2.626,4.785,5.148v4.706
		c0,1.092,0.051,2.158,0.207,3.016H718.704z M718.366,126.493c-2.496-0.052-5.33,0.39-5.33,2.834c0,1.482,0.988,2.184,2.158,2.184
		c1.639,0,2.678-1.04,3.043-2.106c0.076-0.234,0.129-0.494,0.129-0.728V126.493z"/>
	<path fill="#FFFFFF" d="M723.956,130.576c0.676,0.442,1.871,0.91,3.016,0.91c1.664,0,2.445-0.832,2.445-1.872
		c0-1.092-0.65-1.69-2.342-2.314c-2.262-0.806-3.328-2.054-3.328-3.562c0-2.028,1.639-3.692,4.344-3.692
		c1.273,0,2.391,0.364,3.094,0.78l-0.572,1.664c-0.494-0.312-1.404-0.728-2.574-0.728c-1.352,0-2.105,0.78-2.105,1.716
		c0,1.04,0.754,1.508,2.391,2.132c2.186,0.832,3.303,1.924,3.303,3.796c0,2.21-1.717,3.77-4.705,3.77
		c-1.379,0-2.652-0.338-3.537-0.858L723.956,130.576z"/>
</g>
</svg>
